# xmcd
#
# Track frame offsets: 
#        150
#        20475
#        36375
#        52250
#        62027
#        78642
#        97037
#        115327
#        131155
#        146765
#        164597
#
# Disc length: 2445 seconds
#
# Revision: 5
# Processed by: cddbd v1.5.2PL0 Copyright (c) Steve Scherf et al.
# Submitted via: ExactAudioCopy v1.0b6
#
DISCID=aa098b0b
DTITLE=Soundtrack - The Cowboy Way  - The Cowboy Way 
DYEAR=1994
DGENRE=Soundtrack
TTITLE0=Bon Jovi - Good Guys Don't Always Wear White (1994)
TTITLE1=Travis Tritt - The Cowboy Way (1994)
TTITLE2=Gibson-Miller Band - Mammas Don't Let Your Babies Grow Up to B
TTITLE2=e Cowboys (1994)
TTITLE3=Cracker - Blue Danube Blues (1994)
TTITLE4=The Allman Brothers Band - No One to Run With (1994)
TTITLE5=Jeff Beck and Paul Rodgers - On Broadway (1994)
TTITLE6=James House - Days Gone By (1994)
TTITLE7=Blind Melon - Candy Says (1994)
TTITLE8=Emmylou Harris - Too Far Gone (1975)
TTITLE9=George Thorogood - Sonny Rides Again (1994)
TTITLE10=En Vogue - Free Your Mind (1992)
EXTD=
EXTT0=
EXTT1=
EXTT2=
EXTT3=
EXTT4=
EXTT5=
EXTT6=
EXTT7=
EXTT8=
EXTT9=
EXTT10=
PLAYORDER=
